/vscmnt/brussel_pixiu_data/_data_brussel/112/vsc11236/PredSimResults/SUBJ04opt3D/worker_02.mot
version=1
nRows=7
nColumns=50
inDegrees=yes
endheader
                time	         pelvis_tilt	         pelvis_list	     pelvis_rotation	           pelvis_tx	           pelvis_ty	           pelvis_tz	       hip_flexion_r	     hip_adduction_r	      hip_rotation_r	        knee_angle_r	       ankle_angle_r	         mtp_angle_r	       hip_flexion_l	     hip_adduction_l	      hip_rotation_l	        knee_angle_l	       ankle_angle_l	         mtp_angle_l	    lumbar_extension	      lumbar_bending	     lumbar_rotation	 ercspn_r/activation	 intobl_r/activation	 extobl_r/activation	    abd_r/activation	    add_r/activation	hamstrings_r/activation	bifemsh_r/activation	glut_max_r/activation	iliopsoas_r/activation	rect_fem_r/activation	  vasti_r/activation	gastroc_r/activation	 soleus_r/activation	tib_ant_r/activation	 ercspn_l/activation	 intobl_l/activation	 extobl_l/activation	    abd_l/activation	    add_l/activation	hamstrings_l/activation	bifemsh_l/activation	glut_max_l/activation	iliopsoas_l/activation	rect_fem_l/activation	  vasti_l/activation	gastroc_l/activation	 soleus_l/activation	tib_ant_l/activation	
          1.80209468	         -2.52105969	          7.24108059	          6.54918822	          1.26146628	          0.87208367	          0.00054289	         33.70292639	         -7.74518482	         -0.94342015	        -12.65977568	          1.28706810	          0.22842578	        -12.18306316	          6.84279772	        -11.20369860	         -6.51644222	         14.13583745	         17.38140898	        -14.70178848	        -18.17713248	         -2.95392829	          0.01000002	          0.08496953	          0.07100518	          0.00999999	          0.08550556	          0.02095945	          0.12803228	          0.04067612	          0.16541256	          0.08257760	          0.02653229	          0.01000004	          0.01000000	          0.27386722	          0.01061085	          0.01000000	          0.01000000	          0.06286651	          0.01000014	          0.01338535	          0.18520623	          0.02279601	          0.02987077	          0.01000011	          0.01000000	          0.22468935	          0.21012343	          0.01255764	
          1.82011563	         -2.72180998	          7.08315534	          5.84786383	          1.27716184	          0.86946490	          0.00207825	         33.43754547	         -7.10054734	         -1.17998541	        -13.40237248	          1.00137014	          0.22195083	        -12.71885743	          6.65038515	        -12.41606734	         -7.06728400	         13.97310229	         18.87416716	        -14.20992415	        -17.14085710	         -3.44275059	          0.00999999	          0.07257622	          0.05460470	          0.01000001	          0.06575586	          0.04396768	          0.09846001	          0.06403082	          0.12720627	          0.06350418	          0.02040397	          0.01690906	          0.01300350	          0.30049161	          0.01498435	          0.01000000	          0.01690903	          0.04834587	          0.01300342	          0.01794963	          0.14242809	          0.01753109	          0.02297136	          0.01000000	          0.01000005	          0.21865981	          0.21829241	          0.00999999	
          1.83813658	         -2.91212277	          6.84475462	          5.09745080	          1.29334169	          0.86734205	          0.00359741	         33.15403448	         -6.53874134	         -1.38966504	        -14.10997991	          0.44967400	          0.21160917	        -13.16768719	          6.36667922	        -13.66935296	         -7.82954293	         13.62557911	         20.47034622	        -13.66930850	        -15.95310784	         -3.92199153	          0.01000006	          0.05581291	          0.04199234	          0.05497476	          0.08048231	          0.04549018	          0.07571814	          0.04924126	          0.09782471	          0.04883626	          0.04303146	          0.01300348	          0.01000001	          0.32825574	          0.01847763	          0.00999999	          0.01300345	          0.03717915	          0.01000008	          0.01380374	          0.10953066	          0.01348183	          0.05315239	          0.03717910	          0.01000001	          0.17012424	          0.20515235	          0.00999999	
          1.85615752	         -3.09532769	          6.62085163	          4.27915882	          1.30965256	          0.86605120	          0.00523329	         32.97954913	         -6.02931057	         -1.74491679	        -15.01672762	          0.02541307	          0.19293329	        -13.42874086	          6.06392283	        -14.97708838	         -8.94117219	         12.99736043	         22.15181304	        -13.14073475	        -14.74178375	         -4.40125150	          0.01000014	          0.04292148	          0.03229313	          0.07122541	          0.08092343	          0.04643867	          0.05822910	          0.03786774	          0.07522957	          0.03755627	          0.09023264	          0.01000002	          0.01000000	          0.34954373	          0.03001246	          0.00999999	          0.00999999	          0.02859167	          0.01000016	          0.01061551	          0.08423174	          0.01036786	          0.04087548	          0.02859164	          0.02605335	          0.13082967	          0.18562961	          0.00999999	
          1.87417847	         -3.27393877	          6.41002261	          3.40255256	          1.32596388	          0.86577431	          0.00700662	         32.81070288	         -5.53908521	         -2.14482655	        -15.95664826	         -0.21532010	          0.17481782	        -13.46675306	          5.71852736	        -16.32721609	        -10.43314953	         12.02244471	         23.91266744	        -12.63781458	        -13.51876621	         -4.88059141	          0.01356984	          0.03300766	          0.02483420	          0.08495589	          0.07019185	          0.05303206	          0.04477960	          0.05149170	          0.05785337	          0.02888169	          0.12512524	          0.01000003	          0.01000001	          0.35212628	          0.05545903	          0.00999999	          0.00999999	          0.02198769	          0.01000022	          0.01000152	          0.06477626	          0.01638447	          0.03143424	          0.02198767	          0.04279908	          0.10061119	          0.14314803	          0.00999999	
          1.89219942	         -3.44930981	          6.21515523	          2.47798290	          1.34219667	          0.86657893	          0.00893506	         32.54609634	         -5.03858918	         -2.46005469	        -16.75610126	         -0.26961892	          0.16289348	        -13.27788404	          5.31845111	        -17.72854108	        -12.28742326	         10.66039866	         25.70620445	        -12.16371761	        -12.30263352	         -5.36488307	          0.02283000	          0.02538369	          0.01909810	          0.09706521	          0.07097511	          0.06045614	          0.03443661	          0.06537948	          0.04449064	          0.02221072	          0.13835824	          0.01000003	          0.01000002	          0.34304319	          0.08515381	          0.00999999	          0.00999999	          0.01690907	          0.01007769	          0.01530407	          0.04981452	          0.02609466	          0.02417370	          0.01690905	          0.04848525	          0.07737245	          0.11008431	          0.00999999	
          1.91022036	         -3.62001290	          6.04241373	          1.51681124	          1.35833847	          0.86836689	          0.01102567	         32.12267393	         -4.51304066	         -2.59231302	        -17.30635014	         -0.20632549	          0.15774281	        -12.88168909	          4.85727073	        -19.16987945	        -14.45743994	          8.89780798	         27.47305625	        -11.71194447	        -11.11265295	         -5.85822547	          0.02353242	          0.01952068	          0.01468691	          0.11448666	          0.09182046	          0.06724988	          0.02648260	          0.05105471	          0.03421438	          0.01708059	          0.13373478	          0.01000002	          0.01000001	          0.32956202	          0.09836112	          0.01000000	          0.00999999	          0.01300348	          0.02438206	          0.03919625	          0.03830858	          0.02018070	          0.01859017	          0.01300348	          0.05914316	          0.05950129	          0.08465751	          0.00999999	
